<?xml version="1.0" encoding="UTF-8" standalone="no"?>
<!-- Created with Inkscape (http://www.inkscape.org/) -->

<svg
   width="1900"
   height="1300"
   viewBox="0 0 502.70832 343.95834"
   version="1.1"
   id="svg5"
   inkscape:version="1.1.1 (eb90963e84, 2021-10-02)"
   sodipodi:docname="caso-01.svg"
   xmlns:inkscape="http://www.inkscape.org/namespaces/inkscape"
   xmlns:sodipodi="http://sodipodi.sourceforge.net/DTD/sodipodi-0.dtd"
   xmlns="http://www.w3.org/2000/svg"
   xmlns:svg="http://www.w3.org/2000/svg">
  <sodipodi:namedview
     id="namedview7"
     pagecolor="#ffffff"
     bordercolor="#666666"
     borderopacity="1.0"
     inkscape:pageshadow="2"
     inkscape:pageopacity="0.0"
     inkscape:pagecheckerboard="0"
     inkscape:document-units="mm"
     showgrid="false"
     units="px"
     width="1900px"
     inkscape:zoom="0.33512179"
     inkscape:cx="704.22159"
     inkscape:cy="675.87368"
     inkscape:window-width="1024"
     inkscape:window-height="703"
     inkscape:window-x="0"
     inkscape:window-y="0"
     inkscape:window-maximized="1"
     inkscape:current-layer="layer1" />
  <defs
     id="defs2">
    <marker
       style="overflow:visible"
       id="Arrow1Lstart"
       refX="0"
       refY="0"
       orient="auto"
       inkscape:stockid="Arrow1Lstart"
       inkscape:isstock="true">
      <path
         transform="matrix(0.8,0,0,0.8,10,0)"
         style="fill:context-stroke;fill-rule:evenodd;stroke:context-stroke;stroke-width:1pt"
         d="M 0,0 5,-5 -12.5,0 5,5 Z"
         id="path1074" />
    </marker>
  </defs>
  <g
     inkscape:label="Capa 1"
     inkscape:groupmode="layer"
     id="layer1">
    <ellipse
       style="fill:none;stroke:#003cfe;stroke-width:0.264583;stroke-miterlimit:4;stroke-dasharray:none;stroke-opacity:1"
       id="path133"
       cx="108.63943"
       cy="162.23676"
       rx="17.927588"
       ry="19.492323" />
    <path
       style="fill:none;stroke:#000000;stroke-width:0.264583px;stroke-linecap:butt;stroke-linejoin:miter;stroke-opacity:1"
       d="m 108.15862,162.10561 c 72.18809,-0.56619 72.18809,-0.56619 72.18809,-0.56619"
       id="path1393" />
    <path
       style="fill:none;stroke:#000000;stroke-width:0.264583px;stroke-linecap:butt;stroke-linejoin:miter;stroke-opacity:1"
       d="m 108.15862,162.10561 c 0.34315,-82.425173 0.34315,-82.425173 0.34315,-82.425173"
       id="path1395" />
    <text
       xml:space="preserve"
       style="font-size:10.5833px;line-height:1.25;font-family:sans-serif;letter-spacing:0px;word-spacing:0px;stroke-width:0.264583"
       x="108.04205"
       y="116.08829"
       id="text8805-6"><tspan
         sodipodi:role="line"
         id="tspan8803-7"
         style="stroke-width:0.264583"
         x="108.04205"
         y="116.08829">(0,2)</tspan></text>
    <text
       xml:space="preserve"
       style="font-size:10.5833px;line-height:1.25;font-family:sans-serif;letter-spacing:0px;word-spacing:0px;stroke-width:0.264583"
       x="106.7077"
       y="63.223579"
       id="text8805-6-2"><tspan
         sodipodi:role="line"
         id="tspan8803-7-7"
         style="stroke-width:0.264583"
         x="106.7077"
         y="63.223579">(0,4)</tspan></text>
    <text
       xml:space="preserve"
       style="font-size:10.5833px;line-height:1.25;font-family:sans-serif;letter-spacing:0px;word-spacing:0px;stroke-width:0.264583"
       x="110.3389"
       y="280.82098"
       id="text8805-6-0"><tspan
         sodipodi:role="line"
         id="tspan8803-7-9"
         style="stroke-width:0.264583"
         x="110.3389"
         y="280.82098">(0,-4)</tspan></text>
    <path
       style="fill:none;stroke:#000000;stroke-width:0.264583px;stroke-linecap:butt;stroke-linejoin:miter;stroke-opacity:1"
       d="M 180.34671,161.53942 C 163.63178,147.67513 163.63178,147.67513 163.63178,147.67513"
       id="path1397" />
    <path
       style="fill:none;stroke:#000000;stroke-width:0.264583px;stroke-linecap:butt;stroke-linejoin:miter;stroke-opacity:1"
       d="m 99.091426,94.445843 9.410344,-14.765406 v 0"
       id="path1399" />
    <path
       style="fill:none;stroke:#000000;stroke-width:0.264583px;stroke-linecap:butt;stroke-linejoin:miter;stroke-opacity:1"
       d="m 180.34671,161.53942 c -12.63428,13.41814 -12.63428,13.41814 -12.63428,13.41814"
       id="path1401" />
    <path
       style="fill:none;stroke:#000000;stroke-width:0.264583px;stroke-linecap:butt;stroke-linejoin:miter;stroke-opacity:1"
       d="m 108.50177,79.680437 c 10.76839,13.680484 10.76839,13.680484 10.76839,13.680484"
       id="path1403" />
    <text
       xml:space="preserve"
       style="font-size:10.5833px;line-height:1.25;font-family:sans-serif;letter-spacing:0px;word-spacing:0px;stroke-width:0.264583"
       x="177.33664"
       y="181.70177"
       id="text2887"><tspan
         sodipodi:role="line"
         id="tspan2885"
         style="stroke-width:0.264583"
         x="177.33664"
         y="181.70177">x</tspan></text>
    <text
       xml:space="preserve"
       style="font-size:10.5833px;line-height:1.25;font-family:sans-serif;letter-spacing:0px;word-spacing:0px;stroke-width:0.264583"
       x="88.275871"
       y="88.22924"
       id="text4849"><tspan
         sodipodi:role="line"
         id="tspan4847"
         style="stroke-width:0.264583"
         x="88.275871"
         y="88.22924">y</tspan></text>
    <text
       xml:space="preserve"
       style="font-size:10.5833px;line-height:1.25;font-family:sans-serif;letter-spacing:0px;word-spacing:0px;stroke-width:0.264583"
       x="115.5854"
       y="174.40784"
       id="text8805"><tspan
         sodipodi:role="line"
         id="tspan8803"
         style="stroke-width:0.264583"
         x="115.5854"
         y="174.40784">(0,0)</tspan></text>
    <ellipse
       style="fill:none;stroke:#003cfe;stroke-width:0.264583;stroke-miterlimit:4;stroke-dasharray:none;stroke-opacity:1"
       id="path9525"
       cx="107.89855"
       cy="105.49009"
       rx="19.431528"
       ry="10.108553" />
    <ellipse
       style="fill:none;stroke:#003cfe;stroke-width:0.264583;stroke-miterlimit:4;stroke-dasharray:none;stroke-opacity:1"
       id="path9525-3"
       cx="108.68697"
       cy="218.55438"
       rx="19.431528"
       ry="10.108553" />
    <text
       xml:space="preserve"
       style="font-size:10.5833px;line-height:1.25;font-family:sans-serif;letter-spacing:0px;word-spacing:0px;stroke-width:0.264583"
       x="110.65128"
       y="228.11142"
       id="text8805-5"><tspan
         sodipodi:role="line"
         id="tspan8803-3"
         style="stroke-width:0.264583"
         x="110.65128"
         y="228.11142">(0,-2)</tspan></text>
    <rect
       style="fill:none;stroke:#003cfe;stroke-width:0.264583;stroke-miterlimit:4;stroke-dasharray:none;stroke-opacity:1"
       id="rect11735"
       width="37.556957"
       height="25.935156"
       x="89.149475"
       y="39.366718" />
    <rect
       style="fill:none;stroke:#003cfe;stroke-width:0.264583;stroke-miterlimit:4;stroke-dasharray:none;stroke-opacity:1"
       id="rect11735-5"
       width="37.556957"
       height="25.935156"
       x="89.308571"
       y="259.15628" />
    <rect
       style="fill:none;stroke:#003cfe;stroke-width:0.264583;stroke-miterlimit:4;stroke-dasharray:none;stroke-opacity:1"
       id="rect11963"
       width="497.41974"
       height="338.94882"
       x="3.0582731"
       y="3.018764" />
    <circle
       id="path12210"
       style="fill:#ff0000;stroke:#003cfe;stroke-width:0.264583"
       cx="108.76098"
       cy="219.43282"
       r="0.052170832" />
    <circle
       id="path12212"
       style="fill:#ff0000;stroke:#003cfe;stroke-width:0.264583"
       cx="108.76098"
       cy="219.43282"
       r="0.052170832" />
    <path
       style="fill:#ff0000;stroke:#003cfe;stroke-width:0.264583;stroke-miterlimit:4;stroke-dasharray:none;stroke-opacity:1"
       id="path12214"
       d="m 104.88198,219.76749 c 0.78386,0.27562 1.4839,0.73678 2.19322,1.16084 0.4322,0.29004 0.93591,0.47607 1.33602,0.81215 0.0288,0.0348 0.0576,0.0696 0.0863,0.10438 0,0 3.37914,-2.01989 3.37914,-2.01989 v 0 c -0.0416,-0.053 -0.0831,-0.10606 -0.12467,-0.1591 -0.40849,-0.37824 -0.93418,-0.57505 -1.41005,-0.85444 -0.72784,-0.42463 -1.44156,-0.87786 -2.20405,-1.23838 0,0 -3.25594,2.19444 -3.25594,2.19444 z" />
    <path
       style="fill:#ff0000;stroke:#003cfe;stroke-width:0.264583;stroke-miterlimit:4;stroke-dasharray:none;stroke-opacity:1"
       id="path12214-6"
       d="m 104.38942,161.50409 c 0.78386,0.27562 1.4839,0.73678 2.19322,1.16084 0.4322,0.29004 0.93591,0.47607 1.33602,0.81215 0.0288,0.0348 0.0576,0.0696 0.0863,0.10438 0,0 3.37914,-2.01989 3.37914,-2.01989 v 0 c -0.0416,-0.053 -0.0831,-0.10606 -0.12467,-0.1591 -0.40849,-0.37824 -0.93418,-0.57505 -1.41005,-0.85444 -0.72784,-0.42463 -1.44156,-0.87786 -2.20405,-1.23838 0,0 -3.25594,2.19444 -3.25594,2.19444 z" />
    <path
       style="fill:#ff0000;stroke:#003cfe;stroke-width:0.264583;stroke-miterlimit:4;stroke-dasharray:none;stroke-opacity:1"
       id="path12214-2"
       d="m 104.78418,104.65909 c 0.78386,0.27562 1.4839,0.73678 2.19322,1.16084 0.4322,0.29004 0.93591,0.47607 1.33602,0.81215 0.0288,0.0348 0.0576,0.0696 0.0863,0.10438 0,0 3.37914,-2.01989 3.37914,-2.01989 v 0 c -0.0416,-0.053 -0.0831,-0.10606 -0.12467,-0.1591 -0.40849,-0.37824 -0.93418,-0.57505 -1.41005,-0.85444 -0.72784,-0.42463 -1.44156,-0.87786 -2.20405,-1.23838 0,0 -3.25594,2.19444 -3.25594,2.19444 z" />
    <path
       style="fill:#ff0000;stroke:#003cfe;stroke-width:0.264583;stroke-miterlimit:4;stroke-dasharray:none;stroke-opacity:1"
       id="path12214-9"
       d="m 104.78418,51.76165 c 0.78386,0.27562 1.4839,0.73678 2.19322,1.16084 0.4322,0.29004 0.93591,0.47607 1.33602,0.81215 0.0288,0.0348 0.0576,0.0696 0.0863,0.10438 0,0 3.37914,-2.01989 3.37914,-2.01989 v 0 c -0.0416,-0.053 -0.0831,-0.10606 -0.12467,-0.1591 -0.40849,-0.37824 -0.93418,-0.57505 -1.41005,-0.85444 -0.72784,-0.42463 -1.44156,-0.87786 -2.20405,-1.23838 0,0 -3.25594,2.19444 -3.25594,2.19444 z" />
    <path
       style="fill:#ff0000;stroke:#003cfe;stroke-width:0.264583;stroke-miterlimit:4;stroke-dasharray:none;stroke-opacity:1"
       id="path12214-1"
       d="m 104.38942,272.03605 c 0.78386,0.27562 1.4839,0.73678 2.19322,1.16084 0.4322,0.29004 0.93591,0.47607 1.33602,0.81215 0.0288,0.0348 0.0576,0.0696 0.0863,0.10438 0,0 3.37914,-2.01989 3.37914,-2.01989 v 0 c -0.0416,-0.053 -0.0831,-0.10606 -0.12467,-0.1591 -0.40849,-0.37824 -0.93418,-0.57505 -1.41005,-0.85444 -0.72784,-0.42463 -1.44156,-0.87786 -2.20405,-1.23838 0,0 -3.25594,2.19444 -3.25594,2.19444 z" />
    <text
       xml:space="preserve"
       style="font-size:4.37253px;line-height:1.25;font-family:sans-serif;letter-spacing:0px;word-spacing:0px;stroke-width:0.109313"
       x="111.67192"
       y="187.47073"
       id="text23905"
       transform="scale(0.7335544,1.3632254)"><tspan
         sodipodi:role="line"
         id="tspan23903"
         style="stroke-width:0.109313"
         x="111.67192"
         y="187.47073">(-0.5,-3.75)</tspan></text>
    <text
       xml:space="preserve"
       style="font-size:4.37253px;line-height:1.25;font-family:sans-serif;letter-spacing:0px;word-spacing:0px;stroke-width:0.109313"
       x="161.22435"
       y="187.33807"
       id="text23905-3"
       transform="scale(0.7335544,1.3632254)"><tspan
         sodipodi:role="line"
         id="tspan23903-6"
         style="stroke-width:0.109313"
         x="161.22435"
         y="187.33807">(0.5,-3.75)</tspan></text>
    <text
       xml:space="preserve"
       style="font-size:4.37253px;line-height:1.25;font-family:sans-serif;letter-spacing:0px;word-spacing:0px;stroke-width:0.109313"
       x="110.23824"
       y="213.91927"
       id="text23905-0"
       transform="scale(0.7335544,1.3632254)"><tspan
         sodipodi:role="line"
         id="tspan23903-62"
         style="stroke-width:0.109313"
         x="110.23824"
         y="213.91927">(-0.5,-4.25)</tspan></text>
    <text
       xml:space="preserve"
       style="font-size:4.37253px;line-height:1.25;font-family:sans-serif;letter-spacing:0px;word-spacing:0px;stroke-width:0.109313"
       x="159.34418"
       y="214.20885"
       id="text23905-6"
       transform="scale(0.7335544,1.3632254)"><tspan
         sodipodi:role="line"
         id="tspan23903-1"
         style="stroke-width:0.109313"
         x="159.34418"
         y="214.20885">(0.5,-4.25)</tspan></text>
    <text
       xml:space="preserve"
       style="font-size:4.37253px;line-height:1.25;font-family:sans-serif;letter-spacing:0px;word-spacing:0px;stroke-width:0.109313"
       x="111.85727"
       y="26.58153"
       id="text23905-8"
       transform="scale(0.7335544,1.3632254)"><tspan
         sodipodi:role="line"
         id="tspan23903-7"
         style="stroke-width:0.109313"
         x="111.85727"
         y="26.58153">(-0.5,4.25)</tspan></text>
    <text
       xml:space="preserve"
       style="font-size:4.37253px;line-height:1.25;font-family:sans-serif;letter-spacing:0px;word-spacing:0px;stroke-width:0.109313"
       x="161.4097"
       y="26.44887"
       id="text23905-3-9"
       transform="scale(0.7335544,1.3632254)"><tspan
         sodipodi:role="line"
         id="tspan23903-6-2"
         style="stroke-width:0.109313"
         x="161.4097"
         y="26.44887">(0.5,4.25)</tspan></text>
    <text
       xml:space="preserve"
       style="font-size:4.37253px;line-height:1.25;font-family:sans-serif;letter-spacing:0px;word-spacing:0px;stroke-width:0.109313"
       x="110.42359"
       y="53.03006"
       id="text23905-0-0"
       transform="scale(0.7335544,1.3632254)"><tspan
         sodipodi:role="line"
         id="tspan23903-62-2"
         style="stroke-width:0.109313"
         x="110.42359"
         y="53.03006">(-0.5,3.75)</tspan></text>
    <text
       xml:space="preserve"
       style="font-size:4.37253px;line-height:1.25;font-family:sans-serif;letter-spacing:0px;word-spacing:0px;stroke-width:0.109313"
       x="159.52953"
       y="53.319641"
       id="text23905-6-3"
       transform="scale(0.7335544,1.3632254)"><tspan
         sodipodi:role="line"
         id="tspan23903-1-7"
         style="stroke-width:0.109313"
         x="159.52953"
         y="53.319641">(0.5,3.75)</tspan></text>
    <path
       style="fill:none;stroke:#000000;stroke-width:0.264583px;stroke-linecap:butt;stroke-linejoin:miter;stroke-opacity:1"
       d="M 9.5416549,161.24803 C 70.963035,160.76517 70.688435,160.76517 70.688435,160.76517"
       id="path41746" />
    <path
       style="fill:none;stroke:#000000;stroke-width:0.264583px;stroke-linecap:butt;stroke-linejoin:miter;stroke-opacity:1"
       d="m 45.00945,128.91034 c 25.678985,31.85483 25.678985,31.85483 25.678985,31.85483"
       id="path41748" />
    <path
       style="fill:none;stroke:#000000;stroke-width:0.264583px;stroke-linecap:butt;stroke-linejoin:miter;stroke-opacity:1"
       d="M 45.599201,195.93831 C 70.688435,160.76517 70.688435,160.76517 70.688435,160.76517"
       id="path41750" />
  </g>
</svg>
